<?xml version="1.0" standalone="no"?>
<!DOCTYPE svg PUBLIC "-//W3C//DTD SVG 20010904//EN"
 "http://www.w3.org/TR/2001/REC-SVG-20010904/DTD/svg10.dtd">
<svg version="1.0" xmlns="http://www.w3.org/2000/svg"
 width="1080.000000pt" height="1080.000000pt" viewBox="0 0 1080.000000 1080.000000"
 preserveAspectRatio="xMidYMid meet">
<metadata>
Created by potrace 1.16, written by Peter Selinger 2001-2019
</metadata>
<g transform="translate(0.000000,1080.000000) scale(0.100000,-0.100000)"
fill="#000000" stroke="none">
<path d="M3803 10098 c-10 -4 -75 -11 -145 -17 -162 -13 -204 -29 -294 -119
-51 -49 -96 -133 -114 -212 -7 -30 -16 -60 -21 -65 -13 -17 -37 -318 -45 -555
-4 -118 -9 -266 -11 -327 -3 -69 -1 -113 5 -113 15 0 35 58 28 82 -3 13 -1
111 4 218 38 684 56 803 140 916 74 98 186 149 365 164 142 13 3726 12 3844 0
178 -19 253 -54 330 -157 85 -113 105 -201 136 -598 9 -110 20 -252 26 -315 6
-63 12 -145 15 -182 4 -44 11 -71 22 -81 16 -15 17 -10 14 61 -1 42 -7 86 -12
97 -5 11 -14 128 -20 260 -23 504 -29 544 -97 680 -80 158 -173 228 -331 247
-48 6 -249 12 -447 14 -689 7 -3375 9 -3392 2z"/>
<path d="M3892 9648 c-28 -14 -62 -76 -62 -113 0 -35 13 -31 50 15 27 34 37
40 69 40 49 0 70 -17 81 -64 7 -30 5 -45 -8 -64 -13 -21 -14 -24 -2 -20 8 2
24 20 34 39 40 73 -11 168 -94 175 -25 2 -55 -2 -68 -8z"/>
<path d="M7260 9623 c-35 -32 -56 -109 -26 -97 9 3 16 10 16 15 0 19 41 49 68
49 37 0 71 -25 88 -66 15 -37 28 -43 38 -18 13 35 6 81 -16 101 -58 52 -121
58 -168 16z"/>
<path d="M4201 9063 c-12 -10 -29 -34 -39 -53 -10 -21 -26 -36 -38 -38 -28 -4
-39 25 -19 48 19 21 19 50 0 50 -14 0 -55 -54 -55 -72 0 -3 12 -21 26 -38 37
-43 79 -39 111 10 45 70 48 73 71 66 26 -9 30 -47 7 -66 -19 -16 -20 -50 -1
-50 22 0 56 49 56 82 0 36 -40 78 -73 78 -14 0 -34 -8 -46 -17z"/>
<path d="M4067 8873 c-13 -12 -7 -100 7 -112 14 -12 214 -10 234 3 7 4 12 31
12 62 0 47 -3 54 -19 54 -16 0 -20 -8 -23 -42 -3 -40 -5 -43 -33 -43 -27 0
-30 3 -33 38 -2 20 -7 37 -13 37 -5 0 -12 0 -16 0 -5 1 -10 -16 -13 -37 -5
-34 -8 -38 -35 -38 -28 0 -30 3 -33 43 -3 39 -17 53 -35 35z"/>
<path d="M4251 8670 c-28 -22 -55 -40 -61 -40 -6 0 -33 16 -60 35 -86 60 -98
36 -14 -27 27 -21 50 -42 52 -48 2 -6 -17 -10 -47 -10 -52 0 -70 -10 -48 -28
12 -11 233 -9 244 1 13 14 -12 27 -53 27 -59 0 -58 19 6 60 31 20 50 39 50 51
0 28 -12 24 -69 -21z"/>
<path d="M3175 8658 c-2 -7 -9 -119 -16 -248 -6 -129 -15 -240 -20 -245 -4 -6
-12 -114 -18 -240 -6 -127 -15 -324 -21 -440 -5 -115 -15 -334 -21 -485 -19
-442 -26 -562 -37 -615 -5 -27 -10 -155 -11 -284 -1 -128 -6 -299 -12 -380 -6
-80 -12 -189 -14 -241 -2 -52 -8 -207 -14 -345 -6 -137 -13 -365 -16 -505 -3
-140 -8 -282 -12 -315 -13 -123 -7 -516 10 -655 27 -222 61 -405 79 -427 6 -7
8 -13 4 -13 -3 0 -1 -12 5 -27 6 -16 21 -69 34 -119 13 -50 32 -111 44 -137
12 -25 21 -52 21 -60 0 -24 60 -251 75 -283 8 -18 29 -88 46 -155 16 -68 37
-136 45 -151 8 -14 14 -37 14 -51 0 -14 9 -56 20 -93 11 -38 26 -87 32 -109 7
-22 18 -50 25 -61 8 -12 28 -71 45 -130 16 -60 34 -114 39 -120 4 -5 20 -62
35 -125 14 -62 31 -123 37 -134 6 -11 12 -24 13 -30 51 -208 80 -305 92 -305
9 0 12 6 9 18 -9 26 -56 189 -77 267 -34 126 -71 258 -106 371 -19 61 -34 119
-34 129 0 9 -6 31 -14 48 -14 34 -34 104 -43 152 -3 17 -12 39 -19 49 -10 15
-11 23 -2 33 8 10 7 18 -6 31 -9 11 -16 35 -16 57 0 22 -6 42 -15 49 -9 7 -17
36 -21 76 -4 36 -18 90 -31 120 -34 75 -41 120 -19 120 10 0 14 5 11 10 -4 6
-10 8 -15 5 -16 -10 -30 23 -80 195 -12 41 -28 93 -35 115 -7 22 -18 58 -24
80 -6 22 -19 69 -30 105 -82 284 -118 561 -106 820 8 183 22 256 24 125 1 -57
7 -99 16 -115 13 -22 14 14 15 309 0 292 -2 332 -15 327 -8 -3 -15 0 -16 7 -5
100 18 722 31 857 6 52 13 130 16 173 5 55 11 77 20 77 9 0 14 11 13 28 0 24
-1 25 -9 7 -7 -18 -8 -18 -15 8 -10 39 2 82 19 68 18 -15 26 34 26 155 0 50 6
156 14 235 31 305 46 741 33 919 -27 380 -27 393 19 1368 5 106 4 142 -5 142
-6 0 -13 -6 -16 -12z"/>
<path d="M8090 8620 c-4 -37 1 -207 10 -325 5 -71 12 -296 15 -500 3 -203 9
-428 13 -500 9 -149 9 -176 -3 -195 -6 -9 -4 -11 6 -5 8 5 7 0 -3 -12 -24 -27
-23 -49 3 -56 18 -5 21 -11 16 -39 -3 -18 -1 -53 4 -78 10 -55 39 -467 53
-765 3 -60 10 -180 16 -265 11 -181 37 -695 50 -1030 6 -129 16 -361 23 -515
14 -321 14 -422 -2 -625 -20 -255 -36 -329 -225 -1024 -9 -32 -19 -62 -21 -67
-3 -4 -14 -40 -24 -81 -22 -82 -46 -171 -66 -238 -21 -70 -54 -188 -75 -265
-11 -38 -29 -101 -40 -140 -12 -38 -38 -137 -60 -220 -21 -82 -48 -184 -59
-225 -27 -98 -90 -330 -130 -477 l-19 -72 29 29 c17 16 29 39 29 54 0 13 4 27
9 30 5 4 15 39 21 79 14 84 59 257 70 272 4 6 11 26 14 45 24 128 57 249 81
305 7 17 25 80 40 140 15 61 32 119 38 129 10 20 26 81 52 193 8 35 21 78 30
96 9 19 15 38 14 43 -2 5 5 26 14 48 9 21 17 45 17 53 0 28 51 239 64 268 8
17 22 71 31 120 9 50 28 118 42 153 13 34 35 113 47 175 13 63 31 129 39 148
55 117 91 476 88 854 -1 131 -4 242 -6 245 -1 3 -6 109 -9 235 -4 127 -9 241
-11 255 -5 28 -31 564 -40 835 -4 99 -10 184 -15 190 -4 5 -10 89 -13 185 -6
195 -21 495 -42 882 -8 141 -12 280 -10 307 3 28 0 62 -5 75 -5 14 -14 123
-20 243 -6 120 -15 295 -21 388 -5 94 -10 177 -10 185 -1 118 -43 515 -49 460z"/>
<path d="M4067 8483 c-3 -5 -5 -33 -4 -63 l2 -55 125 0 125 0 0 60 c0 47 -3
60 -15 60 -10 0 -17 -14 -20 -45 -5 -42 -7 -45 -35 -45 -28 0 -30 3 -33 43 -3
34 -7 42 -23 42 -16 0 -19 -7 -19 -40 0 -34 -3 -40 -26 -46 -33 -8 -42 2 -46
50 -3 37 -20 58 -31 39z"/>
<path d="M4066 8291 c-13 -21 25 -33 95 -30 49 3 73 0 76 -8 2 -6 -33 -31 -77
-54 -79 -43 -107 -69 -95 -89 4 -6 60 -10 131 -10 104 0 124 2 124 15 0 12
-17 15 -91 15 -65 0 -90 3 -87 12 2 6 42 34 89 62 60 37 84 57 84 71 0 19 -8
20 -122 23 -67 1 -124 -2 -127 -7z"/>
<path d="M4070 8025 c0 -12 15 -15 85 -15 68 0 85 -3 85 -15 0 -8 -17 -22 -37
-32 -54 -25 -126 -71 -135 -86 -17 -31 7 -38 128 -35 98 2 119 6 119 18 0 12
-18 16 -87 18 -49 1 -88 7 -88 11 0 5 17 17 37 26 77 37 144 86 141 103 -3 15
-20 17 -126 20 -104 2 -122 0 -122 -13z"/>
<path d="M4069 7773 c-6 -45 -5 -81 2 -100 8 -22 13 -23 113 -23 57 0 111 3
120 6 12 5 16 21 16 66 0 51 -2 59 -17 56 -12 -2 -18 -13 -19 -33 -1 -55 -2
-56 -36 -53 -31 3 -33 6 -36 46 -2 23 -7 42 -11 42 -17 0 -30 -27 -28 -56 2
-27 0 -29 -33 -29 -33 0 -35 2 -40 39 -3 22 -11 41 -17 44 -7 2 -13 0 -14 -5z"/>
<path d="M4079 7589 c-6 -3 -9 -17 -7 -30 2 -19 16 -28 78 -49 120 -41 124
-47 45 -73 -113 -37 -127 -45 -123 -75 l3 -26 120 -1 c100 0 120 2 120 15 0
12 -17 16 -82 18 -77 3 -107 15 -65 28 56 18 152 57 152 62 -1 21 -51 48 -110
59 -33 6 -70 24 -70 35 0 4 41 8 90 8 71 0 90 3 90 14 0 8 -8 17 -18 20 -24 8
-209 4 -223 -5z"/>
<path d="M4625 6510 l-410 -5 -47 -27 c-109 -65 -114 -85 -127 -518 -21 -672
-31 -996 -42 -1295 -42 -1220 -47 -1606 -25 -1801 20 -176 73 -390 120 -482
36 -72 100 -138 166 -172 94 -48 108 -48 1410 -56 1134 -6 1230 -5 1289 11 82
21 131 46 182 92 73 66 117 145 139 248 4 22 19 90 33 151 14 60 30 162 36
225 16 165 13 755 -4 1024 -8 126 -21 433 -30 680 -8 248 -19 558 -25 690 -5
132 -12 330 -15 440 -18 624 -24 673 -91 738 -67 67 17 62 -1119 62 -566 0
-1214 -2 -1440 -5z"/>
<path d="M8014 5441 c-11 -71 7 -1093 26 -1466 8 -163 14 -310 20 -525 0 -13
2 -13 10 0 6 10 9 5 8 -18 -1 -18 -5 -35 -10 -38 -11 -7 -11 -184 0 -184 10 0
29 102 38 197 5 52 3 64 -10 69 -9 3 -16 16 -16 28 0 17 2 18 10 6 7 -12 12
-10 29 9 12 13 21 29 22 35 0 6 2 20 4 31 5 32 16 145 21 215 2 36 6 74 8 85
2 11 5 23 5 27 1 4 8 5 16 2 8 -4 15 -1 15 5 0 6 -4 11 -10 11 -5 0 -10 11
-10 25 0 16 6 25 15 25 8 0 15 5 15 10 0 6 -5 10 -11 10 -8 0 -10 12 -6 34 3
21 1 36 -5 38 -15 5 -14 186 1 201 18 18 13 59 -11 84 -13 14 -17 23 -9 23 7
0 11 6 8 15 -4 8 -2 17 4 20 5 4 7 10 4 14 -2 5 0 23 5 41 8 27 6 40 -10 67
-21 36 -21 55 -2 89 16 29 13 94 -5 94 -7 0 -13 3 -14 8 0 4 -2 26 -5 50 -3
25 -1 42 5 42 6 0 15 10 22 22 10 18 8 24 -11 38 -20 15 -23 26 -22 79 0 34 4
70 7 80 7 22 -27 35 -45 17 -9 -8 -11 -5 -5 13 5 15 3 21 -3 17 -7 -4 -10 22
-10 73 1 43 -1 82 -4 87 -3 5 -6 52 -7 104 -2 78 -6 99 -22 116 -31 33 -47 26
-55 -25z"/>
<path d="M7170 1718 c-18 -13 -36 -30 -40 -38 -4 -8 -12 -25 -18 -37 -18 -34
-15 -57 12 -86 46 -50 122 -48 182 5 33 29 36 36 31 71 -6 45 -29 74 -74 93
-44 19 -55 18 -93 -8z"/>
<path d="M4012 1689 c-42 -43 -49 -80 -23 -123 32 -51 118 -78 168 -53 52 27
66 51 60 104 -7 66 -51 102 -123 103 -45 0 -56 -4 -82 -31z"/>
</g>
</svg>
